:SAMPLES-PER-SECOND 30
:FRAME-RANGE 1-1700
:FULLY-SPECIFIED
:DEGREES
904
root  72.5715 39.1964 -16.9823 179.503 -0.643433 -178.348
RightUpLeg  16.3857 -6.6933 1.70247
RightLeg  0.938264 -20.767 4.7133
RightFoot  -14.4357 0.138933 8.76137
RightToes  -1.16417e-010 0 -3.6325e-017
Spine  9.93716 5.00418 11.8772
Spine1  -3.57071 7.51857 -9.11711
HEad  -7.36543 44.8008 -15.649
LeftShoulder1  0.385852 2.41954 -29.4711
LeftArm  9.74563 28.3879 -23.4227
LeftForeArm  1.16929 -10.1685 -14.9261
LeftHand  0.307605 0.734565 -7.92142
RightShoulder  12.8872 20.6238 46.6361
RightArm  11.6889 10.4804 18.7451
RightForeArm  13.6044 9.95929 13.5249
RightHand  0.24803 2.77289 3.31441
LeftUpLeg  -15.883 5.13912 -4.45805
LeftLeg  -4.32426 34.9778 -9.1642
LeftFoot  -3.58646 0.422062 -5.90731
LeftToes  1.03528e-008 1.55373e-010 -2.26046e-010
905
root  72.9038 38.8025 -18.5038 179.145 -2.72696 -177.64
RightUpLeg  17.9214 -7.8696 1.82211
RightLeg  4.73411 -19.7494 4.93442
RightFoot  -16.7056 0.429865 11.5673
RightToes  -1.16417e-010 0 -3.6325e-017
Spine  9.21836 5.30173 11.3291
Spine1  -3.53318 7.66365 -8.88751
HEad  -6.45213 43.7576 -13.6621
LeftShoulder1  0.369562 2.45358 -29.0661
LeftArm  7.60352 27.2575 -22.4874
LeftForeArm  2.44296 -9.07276 -15.3232
LeftHand  0.305512 0.830982 -7.98197
RightShoulder  13.2515 20.83 47.5685
RightArm  9.87802 10.5185 18.421
RightForeArm  15.6011 8.74909 13.946
RightHand  0.221665 2.69189 2.97558
LeftUpLeg  -15.3919 4.96495 -5.32086
LeftLeg  -1.82579 34.5349 -7.7654
LeftFoot  -3.68743 0.210489 -2.81553
LeftToes  1.03528e-008 1.55373e-010 -2.26046e-010
906
root  73.1935 38.4728 -20.0554 178.432 -3.89185 -177.836
RightUpLeg  19.1847 -21.8534 -3.84944
RightLeg  13.2603 -3.58844 2.2355
RightFoot  -18.297 0.877845 16.3958
RightToes  -1.16417e-010 0 -3.6325e-017
Spine  9.30562 5.67609 9.9356
Spine1  -3.51912 8.10917 -9.4224
HEad  -5.7891 42.708 -11.4357
LeftShoulder1  0.339566 2.52434 -28.534
LeftArm  6.66694 26.1117 -21.6277
LeftForeArm  2.56699 -8.60364 -15.4924
LeftHand  0.304704 0.878479 -8.05355
RightShoulder  13.7364 20.968 49.051
RightArm  9.21423 9.88457 18.1418
RightForeArm  16.1715 8.15813 14.1675
RightHand  0.21111 2.71839 2.81255
LeftUpLeg  -16.54 4.50766 -6.65808
LeftLeg  5.45137 33.9467 -2.95704
LeftFoot  -2.33776 -0.796876 10.2709
LeftToes  1.03528e-008 1.55373e-010 -2.26046e-010
907
root  73.3289 38.2309 -21.4073 177.872 -4.94164 179.621
RightUpLeg  15.4788 -25.3031 -9.13077
RightLeg  28.2114 4.50218 2.38883
RightFoot  -16.6322 0.96838 23.1283
RightToes  -1.16417e-010 0 -3.6325e-017
Spine  10.4814 5.7528 6.73612
Spine1  -4.02027 7.99905 -10.7139
HEad  -6.93837 42.2862 -11.4048
LeftShoulder1  0.337821 2.55042 -29.3136
LeftArm  5.91121 23.7647 -20.1391
LeftForeArm  1.80733 -7.80122 -15.9012
LeftHand  0.283315 1.09988 -7.92761
RightShoulder  14.2536 21.0588 50.7082
RightArm  7.13376 9.75644 18.1041
RightForeArm  18.5207 6.52731 14.6169
RightHand  0.241356 2.99814 3.1153
LeftUpLeg  -17.4239 6.16761 -10.2611
LeftLeg  13.6507 30.9519 2.46332
LeftFoot  -3.58903 -0.818401 12.3472
LeftToes  1.03528e-008 1.55373e-010 -2.26046e-010
908
root  73.4728 38.0472 -22.6166 178.393 -7.11525 177.619
RightUpLeg  7.19551 -20.5613 -10.1105
RightLeg  44.1832 3.81529 3.66684
RightFoot  -7.29638 -1.07769 28.5263
RightToes  -1.16417e-010 0 -3.6325e-017
Spine  10.5392 5.64906 4.08984
Spine1  -3.62544 7.66376 -11.5768
HEad  -7.41347 41.1559 -12.1413
LeftShoulder1  0.518888 2.08878 -30.574
LeftArm  2.87529 19.4446 -19.4754
LeftForeArm  3.93627 -4.65871 -16.8693
LeftHand  0.253133 1.42174 -7.7459
RightShoulder  14.0129 20.7917 50.4066
RightArm  5.55455 8.91215 19.3465
RightForeArm  19.9585 5.7563 14.5826
RightHand  0.241924 2.8699 3.18192
LeftUpLeg  -17.8304 10.0649 -13.4561
LeftLeg  17.7551 24.9846 4.22919
LeftFoot  -5.82589 -0.536618 11.8257
LeftToes  1.03528e-008 1.55373e-010 -2.26046e-010
909
root  73.6074 37.9337 -23.7041 178.446 -8.78134 176.496
RightUpLeg  -2.26872 -14.4145 -9.47752
RightLeg  58.1648 3.24733 5.19102
RightFoot  9.30286 -3.09008 17.2047
RightToes  -1.16417e-010 0 -3.6325e-017
Spine  11.6177 5.29235 2.81978
Spine1  -3.29015 7.35512 -13.1665
HEad  -8.1572 40.9995 -14.3725
LeftShoulder1  0.630317 1.81423 -31.22
LeftArm  -0.244977 15.3665 -20.4697
LeftForeArm  5.85377 -2.16396 -17.2746
LeftHand  0.242013 1.60844 -7.82462
RightShoulder  14.0451 20.9514 50.1906
RightArm  7.21185 7.4631 20.2103
RightForeArm  18.8708 6.871 14.2646
RightHand  0.270054 2.92098 3.55105
LeftUpLeg  -17.0187 9.81574 -13.7019
LeftLeg  20.7788 23.9591 4.31597
LeftFoot  -8.58658 -0.201811 10.5166
LeftToes  1.03528e-008 1.55373e-010 -2.26046e-010
910
root  73.7166 37.9645 -24.8006 178.505 -11.2591 175.899
RightUpLeg  -9.14054 -10.2729 -9.58898
RightLeg  67.2603 1.65997 3.69903
RightFoot  11.4749 -2.82603 14.3343
RightToes  -1.16417e-010 0 -3.6325e-017
Spine  12.2367 4.67781 0.68073
Spine1  -2.95482 6.25002 -12.5915
HEad  -8.25009 41.5924 -16.096
LeftShoulder1  0.744204 1.56443 -32.2932
LeftArm  0.137952 11.6745 -22.1697
LeftForeArm  5.89011 -1.39985 -17.5371
LeftHand  0.23968 1.63221 -7.80649
RightShoulder  13.5562 20.2142 49.9622
RightArm  12.0225 6.75983 20.485
RightForeArm  16.7728 8.51949 14.0108
RightHand  0.248094 2.87374 3.26677
LeftUpLeg  -15.319 7.78745 -13.433
LeftLeg  22.1147 23.7262 4.20546
LeftFoot  -10.4719 -0.0028419 8.67652
LeftToes  1.03528e-008 1.55373e-010 -2.26046e-010
